<svg width="64" height="64" viewBox="0 0 80 80" fill="none" xmlns="http://www.w3.org/2000/svg">
  <rect width="80" height="80" rx="16" fill="#0B0B0C"/>
  <ellipse cx="40" cy="40" rx="8.5" ry="12.5" transform="rotate(-32 40 40)" stroke="#FCD76B" stroke-width="4.8"/>
  <path d="M15 58.5C13 44.5 14 24.5 25.5 17.5C32 13.5 37 18.5 37.5 28.5C38 38.5 32.5 46.5 27 50.5C22.5 54 18 51 17 46.5C16 42 18 36.5 21 32C24 27.5 28.5 24 33.5 22.5C38 21 42.5 22.5 45.5 26.5C48.5 30.5 49 36.5 46.5 41.5C44 46.5 39 50.5 34 52.5C29 54.5 24 55 20 57.5" stroke="#FCD76B" stroke-width="5.2" stroke-linecap="round" stroke-linejoin="round"/>
  <path d="M33 31.5C34 22 40.5 14.5 47.5 16.5C54 18.5 51.5 32.5 46.5 39C42 45 31.5 48 29 40.5C27 34.5 34.5 33 33.5 30" stroke="#FCD76B" stroke-width="5.2" stroke-linecap="round" stroke-linejoin="round"/>
</svg>
